<svg xmlns="http://www.w3.org/2000/svg" width="1000" height="1000" viewBox="0 0 1000 1000">
  <defs>
    <style>
      .line {
        fill: none;
        stroke: #000;
        stroke-width: 2;
        stroke-linecap: round;
        stroke-linejoin: round;
        opacity: 0.5;
      }
    </style>
  </defs>
  
  <!-- Horizontal Lines -->
  <path class="line" d="M100,100 C300,110 700,90 900,100" />
  <path class="line" d="M50,200 C250,180 750,220 950,200" />
  <path class="line" d="M150,300 C350,320 650,280 850,300" />
  <path class="line" d="M100,400 C300,380 700,420 900,400" />
  <path class="line" d="M50,500 C250,520 750,480 950,500" />
  <path class="line" d="M150,600 C350,580 650,620 850,600" />
  <path class="line" d="M100,700 C300,720 700,680 900,700" />
  <path class="line" d="M50,800 C250,780 750,820 950,800" />
  <path class="line" d="M150,900 C350,920 650,880 850,900" />
  
  <!-- Vertical Lines -->
  <path class="line" d="M100,50 C110,250 90,750 100,950" />
  <path class="line" d="M200,100 C180,300 220,700 200,900" />
  <path class="line" d="M300,50 C320,250 280,750 300,950" />
  <path class="line" d="M400,100 C380,300 420,700 400,900" />
  <path class="line" d="M500,50 C520,250 480,750 500,950" />
  <path class="line" d="M600,100 C580,300 620,700 600,900" />
  <path class="line" d="M700,50 C720,250 680,750 700,950" />
  <path class="line" d="M800,100 C780,300 820,700 800,900" />
  <path class="line" d="M900,50 C920,250 880,750 900,950" />
  
  <!-- Diagonal Lines -->
  <path class="line" d="M100,100 C300,300 700,700 900,900" />
  <path class="line" d="M900,100 C700,300 300,700 100,900" />
  <path class="line" d="M300,100 C400,300 600,700 700,900" />
  <path class="line" d="M700,100 C600,300 400,700 300,900" />
  
  <!-- Curved Lines -->
  <path class="line" d="M100,500 C200,400 300,600 400,500 C500,400 600,600 700,500 C800,400 900,600 1000,500" />
  <path class="line" d="M0,300 C100,400 200,200 300,300 C400,400 500,200 600,300 C700,400 800,200 900,300" />
  <path class="line" d="M100,700 C200,800 300,600 400,700 C500,800 600,600 700,700 C800,800 900,600 1000,700" />
  
  <!-- Circular Patterns -->
  <circle class="line" cx="200" cy="200" r="50" fill="none" />
  <circle class="line" cx="800" cy="200" r="70" fill="none" />
  <circle class="line" cx="200" cy="800" r="70" fill="none" />
  <circle class="line" cx="800" cy="800" r="50" fill="none" />
  <circle class="line" cx="500" cy="500" r="100" fill="none" />
  
  <!-- Grid Pattern -->
  <path class="line" d="M150,150 L150,850 M250,150 L250,850 M350,150 L350,850 M450,150 L450,850 M550,150 L550,850 M650,150 L650,850 M750,150 L750,850 M850,150 L850,850" opacity="0.2" />
  <path class="line" d="M150,150 L850,150 M150,250 L850,250 M150,350 L850,350 M150,450 L850,450 M150,550 L850,550 M150,650 L850,650 M150,750 L850,750 M150,850 L850,850" opacity="0.2" />
</svg>
